# xmcd
#
# Track frame offsets:
#	150
#	19725
#	35725
#	50508
#	76548
#	103914
#	121515
#	135774
#	163835
#
# Disc length: 2397 seconds
# Revision: 0
# Processed by: cddbd v1.5.2PL0 Copyright (c) Steve Scherf et al.
# Submitted via: dBpowerAMP V12.0
#
DISCID=64095b09
DTITLE=Mudcat - You Better Mind
DYEAR=2013
DGENRE=Blues
TTITLE0=When Mama's Happy
TTITLE1=Calamity Jane
TTITLE2=Falling
TTITLE3=Spitting In The Eye of the Devil
TTITLE4=You Better Mind
TTITLE5=Gone Peaches
TTITLE6=San Antone
TTITLE7=Commodicide
TTITLE8=All Ways
EXTD=
EXTT0=
EXTT1=
EXTT2=
EXTT3=
EXTT4=
EXTT5=
EXTT6=
EXTT7=
EXTT8=
PLAYORDER=
